<svg width="130" height="130" viewBox="0 0 130 130" fill="none" xmlns="http://www.w3.org/2000/svg">
<path d="M65 89.375C58.5353 89.375 52.3355 86.8069 47.7643 82.2357C43.1931 77.6645 40.625 71.4647 40.625 65C40.625 58.5353 43.1931 52.3355 47.7643 47.7643C52.3355 43.1931 58.5353 40.625 65 40.625C71.4647 40.625 77.6645 43.1931 82.2357 47.7643C86.8069 52.3355 89.375 58.5353 89.375 65C89.375 71.4647 86.8069 77.6645 82.2357 82.2357C77.6645 86.8069 71.4647 89.375 65 89.375ZM65 97.5C73.6195 97.5 81.886 94.0759 87.981 87.981C94.0759 81.886 97.5 73.6195 97.5 65C97.5 56.3805 94.0759 48.114 87.981 42.019C81.886 35.9241 73.6195 32.5 65 32.5C56.3805 32.5 48.114 35.9241 42.019 42.019C35.9241 48.114 32.5 56.3805 32.5 65C32.5 73.6195 35.9241 81.886 42.019 87.981C48.114 94.0759 56.3805 97.5 65 97.5ZM65 0C66.0774 0 67.1108 0.428012 67.8726 1.18988C68.6345 1.95175 69.0625 2.98506 69.0625 4.0625V20.3125C69.0625 21.3899 68.6345 22.4233 67.8726 23.1851C67.1108 23.947 66.0774 24.375 65 24.375C63.9226 24.375 62.8892 23.947 62.1274 23.1851C61.3655 22.4233 60.9375 21.3899 60.9375 20.3125V4.0625C60.9375 2.98506 61.3655 1.95175 62.1274 1.18988C62.8892 0.428012 63.9226 0 65 0V0ZM65 105.625C66.0774 105.625 67.1108 106.053 67.8726 106.815C68.6345 107.577 69.0625 108.61 69.0625 109.688V125.938C69.0625 127.015 68.6345 128.048 67.8726 128.81C67.1108 129.572 66.0774 130 65 130C63.9226 130 62.8892 129.572 62.1274 128.81C61.3655 128.048 60.9375 127.015 60.9375 125.938V109.688C60.9375 108.61 61.3655 107.577 62.1274 106.815C62.8892 106.053 63.9226 105.625 65 105.625ZM130 65C130 66.0774 129.572 67.1108 128.81 67.8726C128.048 68.6345 127.015 69.0625 125.938 69.0625H109.688C108.61 69.0625 107.577 68.6345 106.815 67.8726C106.053 67.1108 105.625 66.0774 105.625 65C105.625 63.9226 106.053 62.8892 106.815 62.1274C107.577 61.3655 108.61 60.9375 109.688 60.9375H125.938C127.015 60.9375 128.048 61.3655 128.81 62.1274C129.572 62.8892 130 63.9226 130 65ZM24.375 65C24.375 66.0774 23.947 67.1108 23.1851 67.8726C22.4233 68.6345 21.3899 69.0625 20.3125 69.0625H4.0625C2.98506 69.0625 1.95175 68.6345 1.18988 67.8726C0.428012 67.1108 0 66.0774 0 65C0 63.9226 0.428012 62.8892 1.18988 62.1274C1.95175 61.3655 2.98506 60.9375 4.0625 60.9375H20.3125C21.3899 60.9375 22.4233 61.3655 23.1851 62.1274C23.947 62.8892 24.375 63.9226 24.375 65ZM110.963 19.0369C111.725 19.7987 112.153 20.8318 112.153 21.9091C112.153 22.9863 111.725 24.0194 110.963 24.7812L99.4744 36.2781C99.0967 36.6553 98.6484 36.9544 98.1551 37.1583C97.6618 37.3622 97.1331 37.467 96.5993 37.4666C95.5213 37.4659 94.4877 37.0369 93.7259 36.2741C93.3488 35.8963 93.0497 35.448 92.8457 34.9547C92.6418 34.4614 92.5371 33.9328 92.5374 33.399C92.5382 32.321 92.9672 31.2874 93.73 30.5256L105.219 19.0369C105.981 18.2753 107.014 17.8474 108.091 17.8474C109.168 17.8474 110.201 18.2753 110.963 19.0369ZM36.27 93.73C37.0316 94.4918 37.4594 95.525 37.4594 96.6022C37.4594 97.6794 37.0316 98.7125 36.27 99.4744L24.7812 110.963C24.0151 111.703 22.9889 112.113 21.9237 112.103C20.8585 112.094 19.8396 111.667 19.0864 110.914C18.3331 110.16 17.9059 109.141 17.8966 108.076C17.8874 107.011 18.2969 105.985 19.0369 105.219L30.5256 93.73C31.2875 92.9684 32.3206 92.5406 33.3978 92.5406C34.475 92.5406 35.5082 92.9684 36.27 93.73ZM110.963 110.963C110.201 111.725 109.168 112.153 108.091 112.153C107.014 112.153 105.981 111.725 105.219 110.963L93.73 99.4744C92.99 98.7082 92.5805 97.682 92.5898 96.6168C92.599 95.5516 93.0263 94.5327 93.7795 93.7795C94.5327 93.0263 95.5516 92.599 96.6168 92.5898C97.682 92.5805 98.7082 92.99 99.4744 93.73L110.963 105.219C111.725 105.981 112.153 107.014 112.153 108.091C112.153 109.168 111.725 110.201 110.963 110.963ZM36.27 36.2781C35.5082 37.0397 34.475 37.4676 33.3978 37.4676C32.3206 37.4676 31.2875 37.0397 30.5256 36.2781L19.0369 24.7812C18.6489 24.4065 18.3394 23.9582 18.1265 23.4626C17.9136 22.9669 17.8015 22.4339 17.7968 21.8944C17.7921 21.355 17.8949 20.8201 18.0992 20.3208C18.3034 19.8215 18.6051 19.368 18.9865 18.9865C19.368 18.6051 19.8215 18.3034 20.3208 18.0992C20.8201 17.8949 21.355 17.7921 21.8944 17.7968C22.4339 17.8015 22.9669 17.9136 23.4626 18.1265C23.9582 18.3394 24.4065 18.6489 24.7812 19.0369L36.27 30.5256C36.6483 30.903 36.9485 31.3513 37.1533 31.8449C37.3581 32.3384 37.4635 32.8675 37.4635 33.4019C37.4635 33.9362 37.3581 34.4653 37.1533 34.9589C36.9485 35.4525 36.6483 35.9008 36.27 36.2781Z" fill="black"/>
</svg>
