<svg width="130" height="130" viewBox="0 0 130 130" fill="none" xmlns="http://www.w3.org/2000/svg">
<path d="M54.8519 21.9944C52.9896 29.9456 52.7363 38.189 54.107 46.2395C55.4777 54.2901 58.4446 61.9852 62.8333 68.8721C67.2219 75.7591 72.9436 81.6987 79.6618 86.3416C86.3799 90.9846 93.9588 94.237 101.952 95.9075C97.7498 100.256 92.7164 103.716 87.1509 106.081C81.5855 108.447 75.6015 109.671 69.5541 109.679C68.9934 109.679 68.4247 109.7 67.8559 109.679C57.3275 109.308 47.2616 105.261 39.4071 98.2401C31.5525 91.2193 26.4057 81.6687 24.8607 71.2476C23.3156 60.8265 25.4701 50.1934 30.9498 41.1957C36.4294 32.1979 44.888 25.4041 54.8559 21.9944M60.8562 12.1875C60.6178 12.1883 60.3799 12.2101 60.1453 12.2525C47.2128 14.554 35.5889 21.5584 27.5116 31.9172C19.4343 42.2759 15.4747 55.2566 16.3952 68.36C17.3156 81.4634 23.051 93.763 32.4971 102.891C41.9432 112.019 54.4321 117.329 67.5594 117.8C68.2256 117.825 68.8919 117.8 69.55 117.8C78.0769 117.806 86.4798 115.758 94.0481 111.83C101.616 107.902 108.128 102.209 113.031 95.2331C113.428 94.6319 113.66 93.9366 113.703 93.2172C113.746 92.4979 113.599 91.7798 113.277 91.1354C112.955 90.4909 112.468 89.9427 111.866 89.5459C111.265 89.1492 110.569 88.9179 109.85 88.8753C101.734 88.163 93.8908 85.5941 86.9261 81.3672C79.9614 77.1402 74.062 71.3684 69.6837 64.4978C65.3054 57.6273 62.5656 49.842 61.6759 41.7437C60.7863 33.6454 61.7707 25.4509 64.5531 17.7938C64.7898 17.1808 64.8766 16.5202 64.8063 15.867C64.736 15.2137 64.5106 14.5868 64.1489 14.0382C63.7873 13.4897 63.2997 13.0356 62.727 12.7137C62.1542 12.3918 61.5128 12.2113 60.8562 12.1875Z" fill="white"/>
</svg>
